# xmcd CD database file
# Copyright (C) 1996 Ti Kan
#
# Track frame offsets:
#  187
#  15212
#  29412
#  42290
#  56057
#  68400
#  81732
#  96412
#  109450
#  120812
#  132152
#  143945
#  156775
#  169857
#  182512
#  194162
#  206362
#  217925
#  228950
#  242212
#  255910
#  270362
#  283487
#  296362
#  308387
#
# Disc length: 4276 seconds
#
# Revision: 1
# Processed by: cddbd v1.4b41PL1 Copyright (c) Steve Scherf et al.
# Submitted via: CDWizzard Release:4.13
#
DISCID=6110b219
DTITLE=Eddy Arnold - Eddy Arnold - Early Recordings
DYEAR=1900
DGENRE=
TTITLE0=Mommy Please Stay Home With Me
TTITLE1=Mother's Prayer
TTITLE2=Each Minute Seems A Million Years
TTITLE3=Did You See My Daddy Over There
TTITLE4=I Walk Alone
TTITLE5=You Must Walk The Line
TTITLE6=Many Tears Ago
TTITLE7=I Talk To Myself About You
TTITLE8=(I'll Have to) Live and Learn
TTITLE9=Can't Win, Can't Place, Can't Show
TTITLE10=All Alone In this World Without You
TTITLE11=Chained To A Memory
TTITLE12=Take Me In Your Arms And Hold Me
TTITLE13=What Is Life Without Love
TTITLE14=Be Sure There's No Mistake
TTITLE15=I Couldn't Believe It Was True
TTITLE16=Don't Bother To Cry
TTITLE17=Easy Rockin' Chair
TTITLE18=To My Sorrow
TTITLE19=What A Fool I Was
TTITLE20=My Daddy Is Only A Picture
TTITLE21=Then I Turned And Walked Slowly Away
TTITLE22=Bring Your Roses To Her Now
TTITLE23=I Wish I Had A Girl Like You, Mother
TTITLE24=I Wouldn't Trade The Silver In My Mother's Hair
EXTD=
EXTT0=
EXTT1=
EXTT2=
EXTT3=
EXTT4=
EXTT5=
EXTT6=
EXTT7=
EXTT8=
EXTT9=
EXTT10=
EXTT11=
EXTT12=
EXTT13=
EXTT14=
EXTT15=
EXTT16=
EXTT17=
EXTT18=
EXTT19=
EXTT20=
EXTT21=
EXTT22=
EXTT23=
EXTT24=
PLAYORDER=
